<?xml version="1.0" standalone="no"?>
<!DOCTYPE svg PUBLIC "-//W3C//DTD SVG 20010904//EN"
 "http://www.w3.org/TR/2001/REC-SVG-20010904/DTD/svg10.dtd">
<svg version="1.0" xmlns="http://www.w3.org/2000/svg"
 width="693.000000pt" height="685.000000pt" viewBox="0 0 693.000000 685.000000"
 preserveAspectRatio="xMidYMid meet">
<metadata>
Created by potrace 1.16, written by Peter Selinger 2001-2019
</metadata>
<g transform="translate(0.000000,685.000000) scale(0.100000,-0.100000)"
fill="#000000" stroke="none">
<path d="M1647 6744 c-4 -4 -7 -101 -7 -215 l0 -207 -237 -4 c-224 -4 -243 -6
-328 -32 -390 -117 -705 -440 -813 -831 l-27 -100 -3 -2000 c-3 -2028 -2
-2122 34 -2258 76 -293 331 -599 622 -746 98 -49 229 -89 332 -101 66 -8 776
-10 2340 -8 l2245 3 96 27 c423 116 772 489 851 907 10 52 13 518 13 2121 l0
2055 -27 100 c-33 120 -118 293 -190 390 -78 104 -198 217 -307 290 -113 75
-196 114 -318 151 -80 24 -108 27 -295 32 l-208 4 -2 212 -3 211 -85 0 -85 0
-3 -212 -2 -213 -1710 0 -1710 0 -2 213 -3 212 -80 3 c-45 1 -84 0 -88 -4z
m-7 -864 l0 -210 90 0 90 0 0 210 0 210 1710 0 1710 0 0 -180 0 -180 90 0 90
0 0 180 0 181 173 -2 c204 -1 275 -16 414 -84 270 -133 478 -403 518 -674 7
-46 13 -166 14 -267 l2 -184 -118 0 c-65 0 -1380 -7 -2923 -15 -1543 -8 -2858
-15 -2922 -15 l-118 0 0 198 c0 221 8 294 44 408 76 239 314 488 556 582 108
42 166 50 378 51 l202 1 0 -210z m4897 -2937 l-3 -1708 -22 -79 c-75 -257
-272 -486 -523 -605 -175 -84 73 -76 -2459 -78 -2454 -2 -2321 -5 -2467 53
-311 124 -549 418 -593 729 -6 44 -10 693 -10 1718 l0 1647 292 1 c161 1 1319
7 2573 13 1254 7 2490 13 2748 14 l467 2 -3 -1707z"/>
<path d="M4195 3450 c-33 -28 -61 -54 -63 -59 -2 -5 117 -150 262 -322 l266
-314 -1610 -3 -1610 -2 0 -85 0 -85 1576 -2 1577 -3 -237 -292 c-130 -161
-236 -296 -235 -300 0 -9 103 -91 121 -98 15 -5 661 792 666 821 2 13 -105
147 -319 399 -176 209 -324 383 -328 387 -4 5 -34 -15 -66 -42z"/>
</g>
</svg>
